<?xml version="1.0" standalone="no"?>
<!DOCTYPE svg PUBLIC "-//W3C//DTD SVG 20010904//EN"
 "http://www.w3.org/TR/2001/REC-SVG-20010904/DTD/svg10.dtd">
<svg version="1.0" xmlns="http://www.w3.org/2000/svg"
 viewBox="0 0 2600.000000 2600.000000"
 preserveAspectRatio="xMidYMid meet">
<metadata>
Created by potrace 1.15, written by Peter Selinger 2001-2017
</metadata>
<g transform="translate(0.000000,2600.000000) scale(0.100000,-0.100000)"
fill="#000000" stroke="none">
<path d="M17740 18545 c-655 -47 -1297 -181 -1900 -397 -617 -221 -1052 -482
-1730 -1039 -124 -102 -302 -248 -395 -324 -1007 -827 -1984 -1302 -3010
-1464 -318 -50 -408 -56 -860 -56 -435 0 -553 6 -910 46 -1331 147 -2508 633
-3330 1375 -56 51 -136 130 -176 176 -147 165 -192 196 -315 219 -208 39 -417
-129 -432 -348 -10 -154 44 -248 278 -482 727 -727 1818 -1286 3034 -1556 806
-178 1788 -245 2501 -170 1030 109 2011 479 2960 1116 286 191 506 361 1045
803 726 596 1055 798 1625 998 1247 437 2596 474 3985 108 809 -213 1597 -556
2409 -1047 175 -106 234 -128 330 -120 100 7 173 39 240 106 156 154 159 385
6 536 -114 113 -830 513 -1300 725 -1042 472 -2054 731 -3119 800 -208 13
-715 10 -936 -5z"/>
<path d="M17995 15223 c-735 -25 -1462 -163 -2149 -407 -497 -177 -893 -393
-1352 -737 -172 -130 -209 -159 -559 -448 -346 -286 -515 -419 -714 -561
-1148 -815 -2273 -1181 -3521 -1145 -1157 33 -2117 252 -2980 681 -540 269
-935 551 -1285 917 -177 186 -225 217 -349 225 -224 14 -406 -155 -406 -378 0
-138 53 -224 280 -451 904 -904 2293 -1514 3875 -1699 583 -68 1231 -77 1705
-24 900 101 1789 414 2630 927 391 239 645 426 1285 950 777 636 1078 824
1650 1028 969 347 2038 447 3130 293 1091 -154 2199 -566 3268 -1216 181 -110
226 -129 321 -129 120 -1 201 35 285 126 132 146 130 371 -7 511 -72 75 -503
329 -907 535 -1381 705 -2824 1049 -4200 1002z"/>
<path d="M17720 11875 c-661 -51 -1261 -176 -1870 -392 -502 -178 -885 -387
-1359 -741 -140 -104 -240 -185 -767 -618 -1103 -907 -2145 -1382 -3314 -1511
-202 -22 -869 -25 -1125 -5 -826 66 -1500 216 -2165 482 -199 79 -598 276
-766 378 -397 240 -734 508 -956 758 -88 101 -109 118 -176 151 -71 35 -82 38
-161 37 -111 -1 -181 -27 -256 -95 -141 -130 -165 -334 -58 -499 56 -86 398
-420 574 -561 610 -485 1352 -863 2174 -1104 533 -156 1045 -248 1715 -306
199 -17 870 -23 1065 -10 1106 76 2129 438 3155 1116 269 178 505 359 995 760
807 661 1084 835 1664 1046 1082 393 2311 474 3531 233 987 -195 1934 -574
2893 -1156 206 -126 282 -146 412 -113 114 30 195 100 249 215 27 57 31 75 30
150 -1 170 -63 257 -274 386 -1357 830 -2756 1298 -4180 1399 -249 18 -796 18
-1030 0z"/>
</g>
</svg>
